<svg class="img-fluid" id="outputsvg" xmlns="http://www.w3.org/2000/svg" style="transform: matrix(0.769231, 0, 0, 0.769231, 0, 0); transform-origin: 50% 50%; cursor: move; transition: transform 200ms ease-in-out;" width="2000" height="2000" viewBox="0 0 20000 20000"><g id="l1fq8HKZHNbvrU7JrPsyoNA" fill="rgb(77,14,16)" style="transform: none;"><g style="transform: none;"><path id="pkP9BUZKT" d="M8689 17981 c-23 -19 -23 -19 4 -282 79 -766 110 -1338 110 -2029 0 -482 -10 -733 -43 -1100 -62 -665 -161 -1002 -422 -1428 -389 -635 -491 -837 -664 -1314 -206 -569 -402 -989 -669 -1433 -191 -317 -309 -485 -655 -930 -588 -755 -892 -1190 -1041 -1488 -44 -87 -61 -110 -132 -175 -113 -104 -278 -274 -408 -421 -83 -94 -109 -130 -109 -151 0 -23 32 -58 201 -214 159 -147 207 -186 229 -186 22 0 54 28 166 143 76 79 164 172 194 209 32 38 82 82 120 106 156 97 388 317 805 762 633 676 864 899 1088 1049 99 67 179 103 238 109 96 9 114 -31 106 -238 -14 -353 -127 -808 -637 -2555 -330 -1134 -481 -1755 -525 -2160 -15 -141 -20 -160 -77 -310 -63 -165 -165 -470 -188 -562 -22 -85 -24 -83 296 -190 277 -92 279 -93 304 -75 17 13 39 60 77 163 63 172 150 451 188 604 19 75 41 134 70 185 191 339 383 799 845 2030 287 763 402 1059 520 1330 84 195 197 417 263 516 51 77 127 154 152 154 9 0 24 -17 33 -37 14 -32 17 -72 16 -258 -1 -350 -40 -593 -324 -2015 -341 -1702 -397 -2055 -406 -2580 -4 -226 -8 -265 -29 -350 -52 -206 -125 -602 -125 -676 0 -17 8 -38 18 -47 21 -18 563 -122 596 -113 32 8 41 33 75 196 57 272 94 514 110 725 8 101 15 134 46 210 50 126 162 471 234 720 100 350 182 669 422 1630 295 1185 402 1580 515 1891 51 142 112 273 149 319 22 26 26 28 39 15 29 -32 65 -188 85 -380 34 -314 48 -739 61 -1880 13 -1155 27 -1580 66 -1995 19 -204 40 -355 66 -475 18 -86 20 -114 13 -302 -4 -114 -4 -299 0 -410 7 -191 9 -203 30 -224 23 -23 23 -23 317 -17 265 5 295 7 312 24 17 16 20 37 24 171 5 159 -11 561 -28 706 -8 71 -6 96 10 165 55 231 93 567 121 1057 5 96 14 765 19 1485 13 1917 20 2021 175 2564 239 843 618 1518 936 1666 73 33 166 35 229 2 111 -55 214 -263 423 -852 209 -587 289 -783 438 -1076 222 -435 459 -703 768 -869 84 -45 84 -45 142 -184 101 -241 208 -452 237 -466 24 -10 44 -3 216 82 104 51 195 99 203 106 7 7 13 24 13 37 0 24 -508 1527 -540 1600 -40 89 -239 929 -465 1965 -266 1220 -357 1590 -480 1949 -104 304 -201 479 -560 1016 -143 215 -298 453 -344 529 -273 456 -412 840 -473 1311 -10 75 -13 280 -11 824 2 649 6 900 30 1847 6 261 6 261 -20 279 -37 24 -76 13 -90 -25 -6 -17 -19 -30 -28 -30 -14 0 -17 -26 -22 -217 -32 -1030 -42 -2532 -19 -2708 52 -401 148 -718 328 -1077 108 -217 210 -382 479 -783 262 -390 365 -554 442 -710 112 -222 199 -488 319 -970 61 -246 102 -427 379 -1685 122 -554 211 -934 301 -1292 30 -120 54 -221 54 -226 0 -5 -20 -23 -43 -40 -168 -120 -219 -422 -131 -782 13 -57 22 -105 20 -108 -17 -16 -243 214 -333 339 -213 297 -384 667 -651 1414 -187 520 -256 682 -348 812 -92 129 -176 173 -333 173 -166 0 -271 -46 -415 -181 -327 -306 -680 -1057 -871 -1853 -90 -376 -103 -627 -110 -2106 -6 -1060 -15 -1592 -35 -1905 -14 -206 -41 -487 -49 -502 -4 -8 -19 4 -41 34 -51 68 -96 88 -202 88 -80 0 -89 -2 -129 -30 -23 -16 -57 -52 -75 -78 -41 -59 -39 -62 -54 148 -28 402 -33 624 -60 2420 -17 1104 -49 1499 -138 1688 -34 73 -71 104 -134 113 -139 19 -222 -72 -341 -376 -119 -303 -233 -717 -546 -1980 -207 -835 -314 -1250 -407 -1575 -73 -255 -136 -455 -143 -455 -3 0 -16 16 -28 35 -13 19 -42 47 -65 62 -37 25 -50 28 -127 28 -75 0 -92 -3 -132 -27 -25 -15 -60 -43 -78 -63 -19 -22 -31 -30 -31 -20 0 41 55 438 91 655 56 342 115 651 289 1510 217 1073 295 1512 330 1859 13 132 13 432 0 502 -30 156 -126 224 -270 189 -176 -42 -381 -406 -722 -1285 -38 -99 -185 -486 -325 -860 -319 -852 -540 -1407 -622 -1561 -18 -36 -20 -37 -21 -13 0 49 -50 129 -98 160 -40 25 -55 29 -122 29 -94 0 -129 -11 -197 -62 -29 -21 -53 -36 -53 -33 0 17 70 316 126 536 88 350 169 642 414 1484 391 1347 497 1760 546 2139 21 167 16 402 -10 461 -38 88 -101 125 -216 125 -129 0 -229 -37 -380 -140 -203 -140 -452 -375 -894 -845 -165 -176 -349 -369 -409 -430 -108 -110 -108 -110 -102 -54 22 186 -85 290 -270 263 -36 -6 -65 -9 -65 -7 0 7 136 212 225 338 127 182 434 591 614 820 392 498 564 747 783 1130 221 387 395 763 550 1190 189 524 321 798 598 1250 288 471 381 686 460 1068 160 781 168 2252 20 3717 -26 257 -27 260 -50 260 -11 0 -20 7 -20 15 0 21 -36 55 -59 55 -10 0 -29 -8 -42 -19z m6176 -10412 c88 -260 161 -477 163 -483 3 -15 -196 -102 -208 -90 -30 31 -155 400 -192 566 -28 129 -30 290 -4 358 17 46 64 120 75 120 3 0 78 -212 166 -471z m-9125 386 c40 -48 -160 -370 -393 -633 -45 -51 -45 -51 -153 51 -107 102 -107 102 32 237 159 154 317 278 419 327 80 38 79 38 95 18z m-658 -785 c68 -64 68 -64 36 -97 -31 -32 -31 -32 -131 60 -54 50 -102 97 -104 105 -3 7 7 26 23 43 32 33 18 41 176 -111z m10047 -379 c11 -36 20 -65 18 -67 -1 -1 -39 -20 -84 -43 -83 -41 -83 -41 -118 30 -20 39 -35 72 -33 74 11 12 184 81 189 76 4 -3 16 -35 28 -70z m-7987 -2326 c9 -28 17 -70 18 -94 1 -109 -67 -440 -136 -663 -27 -86 -27 -86 -187 -32 -88 29 -162 55 -164 58 -2 2 26 80 62 172 71 180 168 380 218 454 47 68 139 161 156 158 9 -2 24 -25 33 -53z m-360 -997 c146 -50 146 -50 126 -109 -11 -32 -21 -59 -22 -59 -2 0 -294 98 -313 104 -8 4 -8 17 3 53 22 75 23 76 42 68 9 -4 83 -29 164 -57z m2093 -96 c28 -82 37 -219 25 -370 -16 -206 -51 -453 -65 -459 -14 -5 -324 53 -333 62 -10 10 58 284 109 439 58 178 113 294 170 359 39 45 42 47 60 31 10 -9 25 -37 34 -62z m2261 10 c37 -62 69 -173 94 -327 21 -127 40 -335 40 -436 0 -69 0 -69 -181 -69 -181 0 -181 0 -175 128 20 390 62 619 132 725 33 50 51 45 90 -21z m-2340 -1055 c3 -3 0 -33 -7 -67 -11 -55 -14 -61 -33 -57 -12 3 -89 18 -172 33 -150 27 -150 27 -142 83 5 31 11 61 13 67 2 7 57 0 170 -21 91 -18 168 -35 171 -38z m2484 -46 c0 -69 0 -69 -177 -73 -98 -2 -179 -3 -179 -3 -1 0 -4 33 -6 73 -4 72 -4 72 179 72 183 0 183 0 183 -69z"></path><path id="pfvoWpuUG" d="M7516 10238 c-9 -12 -16 -32 -16 -43 0 -74 -46 -142 -120 -180 -55 -28 -60 -37 -60 -109 0 -71 17 -86 96 -86 47 0 69 6 110 29 106 61 155 147 162 282 4 78 2 89 -17 108 -31 31 -133 31 -155 -1z"></path><path id="p10FegLs7L" d="M8674 8990 c-30 -12 -37 -26 -45 -89 -9 -66 -45 -114 -114 -151 -54 -29 -63 -45 -64 -108 -3 -157 251 -102 338 74 30 59 48 179 35 225 -6 20 -20 39 -34 46 -28 14 -85 16 -116 3z"></path><path id="pB8Br5JMH" d="M9779 8549 c-19 -19 -20 -28 -15 -93 12 -129 12 -132 -27 -182 -33 -42 -37 -54 -37 -105 0 -50 3 -60 26 -78 18 -14 41 -21 70 -21 137 0 230 260 158 440 -20 50 -38 60 -103 60 -39 0 -56 -5 -72 -21z"></path><path id="p6V6YeFy1" d="M11002 8394 c-18 -13 -22 -25 -22 -73 0 -32 7 -76 16 -97 19 -45 13 -81 -21 -132 -19 -28 -25 -49 -25 -93 0 -74 16 -89 97 -89 49 0 63 4 79 23 80 89 105 237 64 370 -25 82 -54 107 -119 107 -26 0 -56 -7 -69 -16z"></path></g></g><g id="l23TVDoZm5uDrXFqOCvW7zr" fill="rgb(245,187,202)" style="transform: none;"><g style="transform: none;"><path id="pmrCgWdyT" d="M14660 8059 c-66 -68 -84 -131 -85 -289 0 -105 5 -158 23 -238 28 -125 90 -321 144 -457 22 -55 44 -110 49 -122 8 -22 10 -21 149 39 77 34 139 65 138 69 -2 4 -82 240 -178 523 -106 312 -180 516 -188 516 -6 0 -30 -18 -52 -41z"></path><path id="pZtdUmOKo" d="M5615 7967 c-106 -51 -263 -175 -435 -343 -154 -151 -154 -151 -65 -236 213 -200 180 -192 283 -71 178 210 308 399 358 520 26 63 31 132 12 151 -21 21 -82 13 -153 -21z"></path><path id="plFjPT6EH" d="M7028 4513 c-76 -72 -131 -155 -212 -324 -68 -140 -180 -417 -188 -463 -3 -16 23 -28 187 -82 104 -35 194 -64 200 -64 12 0 44 104 100 325 71 284 91 477 60 583 -26 87 -72 95 -147 25z"></path><path id="pIAxxrexY" d="M8803 3479 c-33 -12 -102 -105 -141 -189 -50 -108 -124 -341 -166 -521 -20 -85 -36 -165 -36 -176 0 -19 17 -24 189 -57 218 -42 218 -42 225 -18 12 40 46 319 57 468 24 331 -28 530 -128 493z"></path><path id="p1CRIRP6Cg" d="M11021 3439 c-75 -102 -120 -354 -137 -751 -7 -168 -7 -168 209 -168 215 0 215 0 211 82 -31 588 -105 878 -223 878 -25 0 -37 -8 -60 -41z"></path></g></g><g id="l6XBjFaIsYenTeYwp7jBzma" fill="rgb(255,255,255)" style="transform: none;"><g style="transform: none;"><path id="px6W2yU6u" d="M8800 17923 c0 -5 11 -111 25 -238 152 -1439 146 -2916 -15 -3702 -79 -382 -172 -597 -460 -1068 -277 -452 -409 -726 -598 -1250 -155 -427 -329 -803 -550 -1190 -219 -383 -391 -632 -783 -1130 -374 -475 -807 -1079 -898 -1252 -15 -28 -15 -28 51 2 125 57 221 52 289 -16 69 -69 69 -186 -1 -338 -31 -66 -31 -66 148 114 98 99 313 324 479 500 621 662 913 909 1146 971 136 36 237 -4 283 -111 26 -60 30 -241 10 -400 -49 -380 -154 -792 -546 -2140 -327 -1124 -456 -1610 -534 -2000 -20 -99 -39 -191 -42 -205 -3 -17 7 -8 32 30 49 71 122 142 171 165 21 11 65 21 98 23 53 3 65 0 106 -26 61 -39 96 -109 107 -212 8 -75 8 -75 29 -35 102 196 329 761 666 1660 353 940 430 1137 577 1470 186 422 340 644 469 675 46 11 55 10 96 -10 92 -44 116 -110 123 -326 10 -353 -48 -715 -362 -2274 -181 -899 -256 -1302 -306 -1650 -32 -228 -60 -477 -60 -542 0 -43 0 -43 29 6 44 75 97 133 149 163 120 71 260 5 303 -142 7 -25 16 -45 19 -45 8 0 105 305 174 545 94 329 201 744 407 1575 368 1484 487 1893 632 2175 109 210 249 240 328 70 102 -217 131 -666 149 -2315 10 -897 20 -1302 40 -1640 12 -197 38 -482 45 -489 3 -2 5 3 5 13 0 29 58 156 90 196 59 75 135 102 218 79 62 -17 121 -77 165 -170 20 -41 36 -69 37 -63 0 5 6 59 14 120 18 135 43 430 56 669 6 99 15 767 20 1485 12 1745 23 1974 115 2356 219 914 629 1717 999 1956 160 103 348 104 471 3 126 -103 210 -278 437 -910 166 -465 259 -696 372 -930 163 -335 277 -507 461 -691 103 -104 240 -213 252 -201 2 2 -6 33 -16 68 -115 371 -113 634 5 807 27 39 112 116 141 126 1 1 -19 78 -43 171 -77 297 -209 863 -329 1405 -271 1231 -318 1439 -379 1685 -120 482 -207 748 -319 970 -77 156 -180 320 -442 710 -269 401 -371 566 -479 783 -180 359 -276 676 -328 1077 -23 175 -13 1511 19 2658 6 237 6 237 -1780 237 -983 0 -1787 -3 -1787 -7z m-1159 -7714 c42 -42 9 -182 -61 -263 -41 -47 -125 -96 -164 -96 -52 0 -79 44 -60 95 4 9 28 27 54 40 74 38 120 106 120 180 0 59 69 86 111 44z m1114 -1249 c36 -14 48 -51 35 -117 -20 -111 -90 -202 -187 -245 -53 -23 -86 -18 -109 17 -25 38 -7 74 51 105 69 37 105 85 114 151 9 71 16 81 68 98 1 1 13 -3 28 -9z m1134 -430 c23 -12 47 -70 55 -135 12 -92 -33 -209 -104 -268 -38 -32 -49 -33 -84 -6 -37 29 -34 66 12 124 34 44 37 53 36 109 0 34 -4 80 -8 102 -7 35 -5 45 13 63 23 23 52 27 80 11z m1225 -171 c17 -14 33 -43 48 -92 19 -63 20 -79 10 -135 -18 -109 -73 -192 -125 -192 -67 0 -86 58 -40 125 34 50 43 133 19 189 -23 54 -21 92 6 110 30 21 50 20 82 -5z"></path><path id="pUReEjo1e" d="M4872 7305 c-59 -67 -59 -67 77 -195 136 -129 136 -129 199 -66 63 62 63 62 -15 137 -218 210 -193 198 -261 124z"></path><path id="pyMahuzjG" d="M14988 6863 c-71 -30 -128 -59 -128 -64 0 -12 99 -209 105 -209 3 0 56 25 118 57 114 56 114 56 78 165 -19 59 -38 108 -41 107 -3 0 -62 -25 -132 -56z"></path><path id="pa6MMiigT" d="M6545 3485 c-15 -53 -26 -98 -23 -100 3 -3 92 -34 197 -70 132 -44 193 -60 196 -52 55 155 62 179 51 182 -36 13 -391 135 -392 135 0 0 -13 -43 -29 -95z"></path><path id="pJamic16N" d="M8425 2417 c-2 -12 -9 -49 -15 -81 -19 -110 -33 -98 168 -135 97 -18 188 -35 202 -38 25 -5 26 -2 45 91 10 53 16 98 13 101 -2 3 -87 21 -189 40 -101 19 -192 37 -202 39 -11 3 -19 -3 -22 -17z"></path><path id="p11eLsrB0P" d="M10886 2278 c4 -57 7 -104 8 -104 0 -1 94 1 209 4 207 5 207 5 207 103 0 99 0 99 -215 99 -216 0 -216 0 -209 -102z"></path></g></g></svg>